<!DOCTYPE svg PUBLIC "-//W3C//DTD SVG 1.1//EN" "http://www.w3.org/Graphics/SVG/1.1/DTD/svg11.dtd">
<!-- Uploaded to: SVG Repo, www.svgrepo.com, Transformed by: SVG Repo Mixer Tools -->
<svg fill="#ffffff" width="100px" height="100px" viewBox="-21.76 -21.76 171.52 171.52" id="Layer_1" version="1.1" xml:space="preserve" xmlns="http://www.w3.org/2000/svg" xmlns:xlink="http://www.w3.org/1999/xlink" stroke="#ffffff">
<g id="SVGRepo_bgCarrier" stroke-width="0" transform="translate(0,0), scale(1)">
<path transform="translate(-21.76, -21.76), scale(10.72)" fill="#1b4377" d="M9.166.33a2.25 2.25 0 00-2.332 0l-5.25 3.182A2.25 2.25 0 00.5 5.436v5.128a2.25 2.25 0 001.084 1.924l5.25 3.182a2.25 2.25 0 002.332 0l5.25-3.182a2.25 2.25 0 001.084-1.924V5.436a2.25 2.25 0 00-1.084-1.924L9.166.33z" strokewidth="0"/>
</g>
<g id="SVGRepo_tracerCarrier" stroke-linecap="round" stroke-linejoin="round" stroke="#CCCCCC" stroke-width="1.7920000000000003"/>
<g id="SVGRepo_iconCarrier"> <g> <path d="M64,1C29.3,1,1,29.3,1,64s28.3,63,63,63s63-28.3,63-63S98.7,1,64,1z M64,119C33.7,119,9,94.3,9,64S33.7,9,64,9 s55,24.7,55,55S94.3,119,64,119z"/> <rect height="40" width="8" x="60" y="54.5"/> <rect height="8" width="8" x="60" y="35.5"/> </g> </g>
</svg>