<!DOCTYPE svg PUBLIC "-//W3C//DTD SVG 1.1//EN" "http://www.w3.org/Graphics/SVG/1.1/DTD/svg11.dtd">
<!-- Uploaded to: SVG Repo, www.svgrepo.com, Transformed by: SVG Repo Mixer Tools -->
<svg width="101px" height="101px" viewBox="-5.04 -5.04 34.08 34.08" fill="none" xmlns="http://www.w3.org/2000/svg">
<g id="SVGRepo_bgCarrier" stroke-width="0" transform="translate(0,0), scale(1)">
<path transform="translate(-5.04, -5.04), scale(2.13)" fill="#1b4377" d="M9.166.33a2.25 2.25 0 00-2.332 0l-5.25 3.182A2.25 2.25 0 00.5 5.436v5.128a2.25 2.25 0 001.084 1.924l5.25 3.182a2.25 2.25 0 002.332 0l5.25-3.182a2.25 2.25 0 001.084-1.924V5.436a2.25 2.25 0 00-1.084-1.924L9.166.33z" strokewidth="0"/>
</g>
<g id="SVGRepo_tracerCarrier" stroke-linecap="round" stroke-linejoin="round"/>
<g id="SVGRepo_iconCarrier"> <path d="M7.5 18C8.32843 18 9 18.6716 9 19.5C9 20.3284 8.32843 21 7.5 21C6.67157 21 6 20.3284 6 19.5C6 18.6716 6.67157 18 7.5 18Z" stroke="#ffffff" stroke-width="1.512"/> <path d="M16.5 18.0001C17.3284 18.0001 18 18.6716 18 19.5001C18 20.3285 17.3284 21.0001 16.5 21.0001C15.6716 21.0001 15 20.3285 15 19.5001C15 18.6716 15.6716 18.0001 16.5 18.0001Z" stroke="#ffffff" stroke-width="1.512"/> <path d="M11 9H8" stroke="#ffffff" stroke-width="1.512" stroke-linecap="round"/> <path d="M2 3L2.26491 3.0883C3.58495 3.52832 4.24497 3.74832 4.62248 4.2721C5 4.79587 5 5.49159 5 6.88304V9.5C5 12.3284 5 13.7426 5.87868 14.6213C6.75736 15.5 8.17157 15.5 11 15.5H13M19 15.5H17" stroke="#ffffff" stroke-width="1.512" stroke-linecap="round"/> <path d="M5 6H8M5.5 13H16.0218C16.9812 13 17.4609 13 17.8366 12.7523C18.2123 12.5045 18.4013 12.0636 18.7792 11.1818L19.2078 10.1818C20.0173 8.29294 20.4221 7.34853 19.9775 6.67426C19.5328 6 18.5054 6 16.4504 6H12" stroke="#ffffff" stroke-width="1.512" stroke-linecap="round"/> </g>
</svg>