<!DOCTYPE svg PUBLIC "-//W3C//DTD SVG 1.1//EN" "http://www.w3.org/Graphics/SVG/1.1/DTD/svg11.dtd">
<!-- Uploaded to: SVG Repo, www.svgrepo.com, Transformed by: SVG Repo Mixer Tools -->
<svg width="100px" height="100px" viewBox="-3.12 -3.12 30.24 30.24" fill="none" xmlns="http://www.w3.org/2000/svg" stroke="#1b4377" transform="matrix(1, 0, 0, 1, 0, 0)rotate(0)">
<g id="SVGRepo_bgCarrier" stroke-width="0" transform="translate(0,0), scale(1)">
<path transform="translate(-3.12, -3.12), scale(1.8900000000000001)" fill="#1b4377" d="M9.166.33a2.25 2.25 0 00-2.332 0l-5.25 3.182A2.25 2.25 0 00.5 5.436v5.128a2.25 2.25 0 001.084 1.924l5.25 3.182a2.25 2.25 0 002.332 0l5.25-3.182a2.25 2.25 0 001.084-1.924V5.436a2.25 2.25 0 00-1.084-1.924L9.166.33z" strokewidth="0"/>
</g>
<g id="SVGRepo_tracerCarrier" stroke-linecap="round" stroke-linejoin="round" stroke="#ffffff" stroke-width="4.8"> <path opacity="0.5" d="M2.36407 12.9579C1.98463 10.3208 1.79491 9.00229 2.33537 7.87495C2.87583 6.7476 4.02619 6.06234 6.32691 4.69181L7.71175 3.86687C9.80104 2.62229 10.8457 2 12 2C13.1543 2 14.199 2.62229 16.2882 3.86687L17.6731 4.69181C19.9738 6.06234 21.1242 6.7476 21.6646 7.87495C22.2051 9.00229 22.0154 10.3208 21.6359 12.9579L21.3572 14.8952C20.8697 18.2827 20.626 19.9764 19.451 20.9882C18.2759 22 16.5526 22 13.1061 22H10.8939C7.44737 22 5.72409 22 4.54903 20.9882C3.37396 19.9764 3.13025 18.2827 2.64284 14.8952L2.36407 12.9579Z" stroke="#ffffff" stroke-width="1.272"/> <path d="M9 16C9.85038 16.6303 10.8846 17 12 17C13.1154 17 14.1496 16.6303 15 16" stroke="#ffffff" stroke-width="1.272" stroke-linecap="round"/> </g>
<g id="SVGRepo_iconCarrier"> <path opacity="0.5" d="M2.36407 12.9579C1.98463 10.3208 1.79491 9.00229 2.33537 7.87495C2.87583 6.7476 4.02619 6.06234 6.32691 4.69181L7.71175 3.86687C9.80104 2.62229 10.8457 2 12 2C13.1543 2 14.199 2.62229 16.2882 3.86687L17.6731 4.69181C19.9738 6.06234 21.1242 6.7476 21.6646 7.87495C22.2051 9.00229 22.0154 10.3208 21.6359 12.9579L21.3572 14.8952C20.8697 18.2827 20.626 19.9764 19.451 20.9882C18.2759 22 16.5526 22 13.1061 22H10.8939C7.44737 22 5.72409 22 4.54903 20.9882C3.37396 19.9764 3.13025 18.2827 2.64284 14.8952L2.36407 12.9579Z" stroke="#ffffff" stroke-width="1.272"/> <path d="M9 16C9.85038 16.6303 10.8846 17 12 17C13.1154 17 14.1496 16.6303 15 16" stroke="#ffffff" stroke-width="1.272" stroke-linecap="round"/> </g>
</svg>